<svg width="140" height="60" viewBox="0 0 140 60" fill="none" xmlns="http://www.w3.org/2000/svg">
<path fill-rule="evenodd" clip-rule="evenodd" d="M13.8763 47.9635L13.5117 47.3216C12.7075 45.8258 11.9607 43.9575 11.6334 41.5715C11.3785 39.7122 11.4294 37.7919 11.7945 35.8546C11.8605 35.5042 11.9372 35.1532 12.0237 34.8019C12.0557 34.6433 12.0831 34.4831 12.1261 34.3264C12.943 31.3577 13.9659 29.3861 14.4284 28.6566L15.0625 28.7475C13.9105 31.1025 13.4474 31.9639 12.7813 34.7301C12.1849 37.6568 12.3277 40.5383 13.1865 43.1698C13.8922 45.3332 13.7247 44.7957 14.5807 46.2364C15.2178 47.307 15.9764 48.289 16.8154 49.173C17.595 49.995 18.4473 50.7362 19.3506 51.4L19.3982 51.4351L19.3906 51.4783C21.507 53.0227 23.9027 54.1546 26.3895 54.9537C27.5585 55.3291 28.7635 55.6285 29.9895 55.8617C28.7711 55.9579 27.5483 56.0033 26.3192 55.987C25.0811 55.9704 23.854 55.9155 22.6506 55.8121C22.3076 55.7196 21.9675 55.6179 21.6306 55.5068C19.2098 54.0849 16.976 52.255 15.2107 49.9868C14.7547 49.4007 14.3296 48.7854 13.9413 48.1404L13.8344 47.9626L13.8763 47.9635ZM48.787 55.4987C57.5592 53.8347 66.2643 50.5947 74.7931 47.4461C77.5369 46.4332 80.2808 45.4196 83.0336 44.4499C83.8303 44.1696 84.627 43.891 85.4246 43.6164C86.0557 43.3991 86.6856 43.1867 87.3152 42.9778C87.4018 42.9735 87.4885 42.9676 87.5752 42.9634C91.9543 42.7672 95.4122 43.4035 97.7351 45.1602L97.6187 45.1907C90.6727 47.0487 83.8088 49.4882 76.9514 51.8427C63.7015 56.3915 49.7823 60.9485 36.2385 59.8285C34.2229 59.6617 32.2998 59.3729 30.4348 58.9374C35.5444 58.9569 40.8698 57.7781 45.9198 56.3575C46.878 56.088 47.8336 55.8003 48.787 55.4987ZM93.0644 41.206C95.2974 40.5759 97.5426 40.0161 99.8223 39.5449C105.155 38.4418 110.516 37.9049 115.794 38.3482C118.337 38.615 120.543 39.1789 122.374 39.9776C129.075 42.9002 131.03 50.7052 124.225 55.6902C119.937 58.8307 114.553 56.7466 122.212 54.3576C124.812 53.5464 127.312 51.6179 127.681 48.1041C128.111 43.9985 123.841 41.2627 115.223 41.7683C109.851 41.9388 104.103 43.5161 98.7768 44.887C97.3233 43.1978 95.372 41.9759 93.0644 41.206Z" fill="#DE7E4B"/>
<path fill-rule="evenodd" clip-rule="evenodd" d="M46.4223 55.031C60.2031 51.1546 73.4409 43.5963 87.5753 42.9635C90.9949 42.8104 93.8528 43.1648 96.047 44.164C98.9517 45.4867 101.158 48.1391 99.7437 51.3802C98.0753 55.2043 100.717 54.7757 101.061 51.7267C101.319 49.4295 100.562 47.2185 99.4992 45.8257C97.184 42.4529 93.1404 40.6344 88.219 40.2779C73.7134 39.2268 60.1076 47.6006 45.9569 52.103C35.5914 55.4011 22.1239 58.369 14.081 48.6799C9.57898 43.2567 8.15832 34.6529 12.5536 25.7169C12.4667 25.2036 12.099 25.7089 11.6541 25.7032C7.63158 34.7217 8.57316 43.6065 13.3596 49.5804C21.9175 60.2611 34.8879 58.2756 46.4223 55.031Z" fill="#F7C514"/>
<path fill-rule="evenodd" clip-rule="evenodd" d="M96.4477 15.2773L96.9268 14.2339L99.6035 7.59741C99.9058 6.90359 100.201 6.20518 100.494 5.50483L101.615 3.15386C101.704 3.00743 101.798 2.86047 101.899 2.72055C102.585 1.76869 103.47 0.874032 104.618 0.374162C105.533 -0.0248515 106.516 -0.157089 107.491 0.23831C108.318 0.573849 108.819 1.17669 108.971 1.97948C110.277 6.38265 103.027 13.1653 100.75 14.6963L100.128 15.0888C97.933 20.4665 95.3871 27.4114 93.1903 32.7884C92.9734 33.3204 92.7114 33.9915 92.6464 34.5622C92.6182 34.8121 92.6401 35.0984 92.857 35.2878L92.8657 35.2954L92.8727 35.3042C93.0196 35.4853 93.2059 35.5748 93.4476 35.5411C94.8305 35.3483 96.3143 33.4828 97.0259 32.5201C97.9087 31.3585 98.6869 30.0319 99.4051 28.7736C98.995 28.445 98.6028 28.0525 98.3607 27.6059C98.1264 27.1155 98.136 26.4726 98.194 25.9603C98.2704 25.2888 98.4902 24.627 98.755 24.0056C99.0347 23.3142 99.3907 22.6466 99.7753 21.999C100.172 21.3876 100.892 20.4085 101.741 20.29C102.856 20.1348 102.899 21.1863 102.818 21.9034C102.593 23.8848 101.606 26.2028 100.749 28.0347C100.935 28.0501 101.123 28.0478 101.306 28.0278C102.203 27.9288 102.897 27.3102 103.318 26.6294L106.34 19.1657L106.424 19.1607C106.974 19.128 107.549 19.0945 108.092 19.0187C108.72 18.9311 109.338 18.7997 109.945 18.6394L110.207 18.5702L105.145 30.917L104.566 32.4361C104.454 32.6605 104.392 32.8952 104.364 33.142C104.338 33.3734 104.318 33.6802 104.667 33.6315C105.251 33.5498 106.162 32.4932 106.495 32.1004C107.451 30.9097 108.274 29.5971 109.011 28.2815C109.88 26.7313 110.649 25.1293 111.351 23.5081L112.883 19.78C112.958 19.609 113.038 19.4374 113.116 19.2665C113.272 18.9428 113.405 18.6005 113.527 18.2639L113.551 18.1967L114.046 18.1278L114.073 18.1507C114.096 18.1508 114.129 18.1465 114.148 18.1439L115.754 18.0112C115.799 18.005 115.844 17.9939 115.883 17.9723L115.905 17.9597L115.929 17.9563C116.035 17.9347 116.172 17.8846 116.279 17.851C116.344 17.8219 116.43 17.8113 116.478 17.8007C116.665 17.7597 116.852 17.72 117.039 17.6803L117.288 17.6275L111.979 30.6575C111.797 31.0836 111.572 31.6335 111.52 32.0935C111.47 32.5386 111.556 32.8436 112.114 32.7659C113.036 32.6373 113.934 31.5498 114.415 30.909C115.646 29.2269 116.692 27.2527 117.63 25.4179C118.984 22.7877 120.045 20.033 121.159 17.3079L121.19 17.2316L121.281 17.2325C121.788 17.2374 122.296 17.2107 122.795 17.1411C123.411 17.0553 124.056 16.8889 124.651 16.7313L124.905 16.6643L124.234 18.4511C125.212 17.4097 126.572 16.229 127.993 16.0307C129.857 15.7708 130.535 16.8488 130.638 18.2926C131.263 17.5105 132.016 16.6448 132.809 16.0553C133.485 15.5687 134.244 15.22 135.113 15.0988C135.833 14.9985 136.514 15.1339 137.008 15.6712C137.498 16.2411 137.581 16.9752 137.504 17.656C137.413 18.4538 137.108 19.324 136.819 20.0726C136.347 21.2942 135.775 22.4964 135.185 23.6711C134.59 24.8545 134 26.0556 133.485 27.2719C133.263 27.795 132.91 28.609 132.846 29.1709C132.794 29.632 132.857 30.0162 133.465 29.9313C134.479 29.7899 135.464 28.5017 135.961 27.7835C136.438 27.1367 136.861 26.4294 137.261 25.7393C137.864 24.6959 138.43 23.6303 138.982 22.5618C139.079 22.3795 139.513 21.5133 139.853 21.6464C140.427 21.8715 139.149 24.3013 139.009 24.5641C138.437 25.6051 137.846 26.6497 137.201 27.6542C136.649 28.5136 135.974 29.3846 135.152 30.046C134.526 30.5542 133.789 30.9147 132.943 31.0326C132.101 31.1502 131.275 31.0194 130.646 30.4368C129.998 29.8359 129.84 29.0529 129.93 28.2578C130.02 27.4657 130.342 26.6021 130.645 25.865C131.308 24.2752 132.089 22.7067 132.879 21.1708C133.276 20.3641 133.665 19.5422 133.993 18.7083C134.174 18.2464 134.39 17.6718 134.446 17.1788C134.485 16.8312 134.458 16.473 133.975 16.5405C132.719 16.7156 131.237 18.9606 130.669 19.8517C130.094 20.7544 129.608 21.7768 129.16 22.7387C128.415 24.3357 127.728 25.9617 127.06 27.5874C126.781 28.3181 126.501 29.0485 126.212 29.7763C126.079 30.1128 125.943 30.486 125.781 30.8061L125.37 31.792L125.286 31.7952C124.966 31.8076 124.636 31.825 124.321 31.8692L123.737 31.9506L122.406 32.1665C122.359 32.1852 122.304 32.1947 122.266 32.2041C122.126 32.2388 121.986 32.2722 121.847 32.3053L121.58 32.3685L121.684 32.1384C121.771 31.9458 122.117 31.2297 122.139 31.0401L122.14 31.0247L124.291 25.8572L126.098 21.5339C126.431 20.7155 126.762 19.8929 127.064 19.0637C127.174 18.7597 127.38 18.2429 127.417 17.9253C127.453 17.6033 127.389 17.4077 126.996 17.4626C126.619 17.5151 126.224 17.7996 125.955 18.0253C125.402 18.4706 124.915 19.0592 124.499 19.6117C123.06 21.5439 121.965 23.8858 121.073 26.0779L119.617 29.6414L118.758 31.8133L118.36 32.7736L118.269 32.7725C117.999 32.7693 117.676 32.7651 117.41 32.8021C116.55 32.922 115.7 33.0825 114.86 33.2795L114.606 33.3393L115.672 30.7318C114.677 32.1774 113.206 33.7847 111.306 34.0494C110.465 34.1668 109.761 33.946 109.254 33.2903C108.675 32.5558 108.63 31.5626 108.726 30.7168L108.736 30.6231C108.387 31.114 108.034 31.603 107.671 32.0848C107.388 32.4599 107.094 32.8499 106.774 33.1991C105.932 34.1373 104.868 34.8557 103.509 35.0451C102.828 35.14 102.134 35.064 101.634 34.5697C101.126 34.0687 101.051 33.3849 101.123 32.7513C101.222 31.8826 101.623 30.8331 101.945 30.0198L102.536 28.5608C102.166 28.7777 101.757 28.9227 101.306 28.9856C100.998 29.0284 100.613 29.0102 100.288 28.9896C99.2469 30.8537 97.997 32.9338 96.5216 34.5282C95.6329 35.4853 94.459 36.3984 93.0358 36.5966C92.0807 36.7299 91.1545 36.5779 90.4807 35.8781C89.8144 35.1856 89.7097 34.2147 89.7797 33.3457C89.2802 34.163 88.7234 34.9931 88.0942 35.7012C87.1683 36.7567 85.9814 37.5803 84.465 37.7915C83.6759 37.9018 82.862 37.822 82.2352 37.3075C81.6014 36.8272 81.4254 36.1653 81.5061 35.4559C81.5862 34.7496 82.0168 33.7395 82.2898 33.0793C82.9098 31.5796 83.6126 30.0971 84.3199 28.6326C84.4547 28.3505 84.5926 28.0098 84.6278 27.6993C84.7374 26.7333 83.576 26.8167 82.8567 26.917C82.5683 26.9571 82.2457 27.0466 81.9616 27.1241L77.2364 38.5676L77.1464 38.5673C76.615 38.5649 76.0837 38.5948 75.5612 38.6675C74.9878 38.7473 74.3263 38.9431 73.7743 39.0983L73.5082 39.1731L74.7409 36.1541C74.3641 36.6114 73.96 37.0505 73.5367 37.4728C72.392 38.5764 70.8878 39.6847 69.1678 39.9245C68.449 40.0247 67.7032 39.9884 67.0337 39.6714C65.6725 39.0268 64.8755 37.4222 64.6871 36.0617C64.6715 36.0864 64.6572 36.1091 64.6448 36.128C64.4775 36.3826 64.3101 36.6367 64.139 36.889C63.6471 37.6141 63.128 38.3293 62.5602 39.0062C61.8866 39.8094 60.6327 41.1796 59.4622 41.3427C58.6213 41.46 57.9173 41.2392 57.4107 40.5835C56.8314 39.8491 56.7863 38.8558 56.8824 38.0099L56.8929 37.9163C56.5437 38.4073 56.1901 38.8961 55.8273 39.3782C55.5448 39.7533 55.2499 40.1432 54.9309 40.4924C54.0604 41.4612 52.6954 42.1299 51.3208 42.3215C50.6397 42.4166 49.9455 42.3401 49.4459 41.846C48.586 40.9961 49.7276 38.2572 50.1016 37.3129L51.2538 34.4678C50.9614 33.9679 50.5404 33.6489 50.1035 33.2808C48.9791 36.1251 47.3573 38.7564 45.0645 40.9377C43.1291 42.7778 40.7601 44.2731 37.9043 44.6714C36.7612 44.8307 35.5256 44.748 34.6539 43.9352C33.748 43.121 33.6431 41.8974 33.7637 40.8351C33.8088 40.4382 33.8916 40.045 34.0023 39.66C31.8686 41.7083 29.3051 43.4309 26.5963 44.8058C23.9842 46.1368 21.1544 47.1157 18.1559 47.5336C12.6695 48.2985 7.55235 47.296 3.83002 43.1922C3.09819 42.375 2.45435 41.498 1.91846 40.5671C1.82752 40.4091 1.73972 40.2496 1.65505 40.089L1.62449 40.0969L1.57889 39.9888C1.07481 38.7947 0.668937 37.5782 0.32569 36.3436L0.323091 36.3342L0.322284 36.3224C0.277396 36.0968 0.239048 35.8728 0.203478 35.646C-1.67242 23.7089 9.72822 12.9599 21.7942 10.5199C25.2328 7.28938 29.5641 5.47336 34.5067 4.78421C35.787 4.60586 37.15 4.47485 38.4567 4.53092C40.0879 4.61521 41.7739 4.87405 43.3832 5.1581C46.3917 5.65171 49.5638 6.15845 52.602 6.36722C54.357 6.48659 56.2686 6.54301 57.9985 6.3018C59.0257 6.15863 60.0604 5.92219 61.0017 5.53199C61.8949 5.1864 62.7093 4.67992 63.4317 4.10079C64.3242 3.38828 65.1342 2.50994 65.8667 1.66219L65.9405 1.57676L66.7266 2.04877L66.6452 2.15077C65.0557 4.14469 63.147 5.86603 60.8645 7.20545C58.6817 8.48483 56.2895 9.34616 53.6916 9.7085C52.3579 9.89443 51.0026 9.92943 49.6467 9.83395C47.9321 11.1993 46.5935 12.8984 45.5581 14.7447C44.8852 15.9212 44.3289 17.1837 43.8278 18.4322C43.1421 20.1413 42.5452 21.8889 41.9906 23.6407C41.9508 23.7644 41.9105 23.8878 41.8703 24.0114C43.4572 22.5335 45.5426 21.2741 47.8027 22.7306C48.4088 23.1247 49.2126 23.6636 49.6858 24.1873C50.2801 24.7943 50.653 25.591 50.8958 26.3574C51.4958 28.3636 50.9109 30.1134 50.546 32.0159C50.9653 32.3221 51.4933 32.6347 51.8396 33.0211L54.497 26.4585L54.5804 26.4536C55.1306 26.4212 55.706 26.3877 56.2493 26.312C56.8771 26.2244 57.4942 26.093 58.1012 25.9328L58.3636 25.8637L54.2064 36.0029C53.9272 36.6838 53.6172 37.3544 53.3305 38.0329C53.0135 38.7834 52.6604 39.6427 52.52 40.4418C52.4786 40.6787 52.4704 40.974 52.8233 40.9247C53.4079 40.8432 54.3186 39.7862 54.6517 39.3937C55.6075 38.2027 56.4306 36.8905 57.1673 35.5747C57.7296 34.5718 58.245 33.5465 58.7301 32.5091C59.799 30.2226 60.7201 27.8786 61.6854 25.5525L61.7154 25.4801L61.8015 25.4777C62.9401 25.4445 64.1039 25.247 65.1908 24.9748L65.4492 24.9101L61.6618 34.2048C61.2765 35.1507 60.8558 36.0693 60.494 37.0286C60.3727 37.3504 59.4713 39.771 59.8668 40.0001C59.9469 40.0467 60.1386 39.9508 60.2021 39.9164C61.1335 39.4111 63.5984 35.6206 64.0708 34.595C64.3685 33.949 64.6742 33.3071 64.9989 32.6723C65.4666 31.7645 65.9363 30.8584 66.4288 29.961C67.8548 27.4396 70.5984 23.7976 73.9355 23.3317C74.7664 23.216 75.555 23.3604 76.1314 23.9817C76.7408 24.6531 76.8011 25.5751 76.7094 26.384C76.6043 27.3109 76.3174 28.1861 75.8609 29.0074C75.4319 29.8205 74.8943 30.6126 74.1996 31.256C73.6726 31.7515 72.9964 32.2193 72.2182 32.3277C71.8233 32.3827 71.4633 32.2888 71.2114 31.9893C70.9354 31.6933 70.8759 31.3255 70.9174 30.9592C70.9957 30.2674 71.3195 29.6718 71.8153 29.1589C72.3409 28.6114 73.0204 28.2715 73.794 28.0848C74.2269 27.9588 74.8203 27.7558 75.1307 27.4458C75.4202 27.1561 75.5291 26.6714 75.5726 26.2888C75.6294 25.7869 75.5909 25.2244 75.2689 24.7844C74.9907 24.4355 74.6366 24.2832 74.1753 24.3476C73.2104 24.4821 72.4245 25.6302 72.003 26.33C69.9785 29.8023 68.4691 33.4854 68.0182 37.458C67.9754 37.8361 68.0175 38.2452 68.3249 38.5455C68.6061 38.8503 69.1013 38.8441 69.4846 38.7908C70.4598 38.6547 71.3535 38.1068 72.0714 37.5352C74.3867 35.6405 75.5756 33.6527 76.7763 31.0824L80.1707 22.8538L80.2621 22.8553C80.7068 22.863 81.162 22.85 81.5994 22.7889C82.2939 22.6919 83.0007 22.508 83.6674 22.319L83.936 22.2428L82.3561 26.0495L82.7451 25.9953C83.2559 25.9241 83.7594 25.7974 84.2039 25.5673C84.6481 25.3163 85.0413 24.9576 85.3713 24.5927L86.9969 22.7919C87.8498 21.8571 88.9338 21.0905 90.3024 20.8998C90.8401 20.8247 91.3935 20.8731 91.8671 21.1663C92.3181 21.4791 92.4122 21.9613 92.358 22.4375C92.2978 22.9677 92.0498 23.4151 91.6445 23.7904C91.2152 24.1788 90.7052 24.4516 90.0943 24.5369C89.5304 24.6154 88.9464 24.5479 88.539 24.1337L88.1402 23.8184L88.1276 23.7925C88.083 23.7011 87.9812 23.7043 87.8877 23.7173C87.5175 23.7691 86.9908 24.2879 86.7607 24.5261C86.2803 25.0493 85.7709 25.5515 85.2253 26.0191C86.6313 26.3274 87.8517 27.0213 87.6839 28.5016C87.5652 29.5456 86.8233 31.008 86.3388 31.9438C85.8772 32.8582 85.4027 33.7796 84.9765 34.7059C84.8448 35.0351 84.7661 35.3768 84.7263 35.7277C84.6826 36.1139 84.6766 36.6524 85.266 36.5703C86.2066 36.4391 87.1035 35.3812 87.6016 34.7275C88.1474 34.0074 88.6337 33.2274 89.0922 32.4576C89.755 31.3446 90.3743 30.2056 90.9743 29.0621C92.8149 25.5557 94.4637 20.1456 95.951 16.4845C93.5948 17.4604 91.0907 18.1018 88.5158 18.4975L87.5086 18.6131C83.0119 18.9507 79.2471 18.1237 75.5451 15.5654L75.5379 15.5601L74.4917 14.6171L75.3695 13.9097L75.4606 13.9917C78.5606 16.784 82.4541 17.8574 86.6608 17.7174C90.1079 17.4583 93.3558 16.5991 96.4477 15.2773ZM34.4379 24.7054C33.3596 25.5626 32.1319 26.4511 30.8844 27.038C29.6421 27.6142 28.3167 28.0009 26.9248 28.195C25.1289 28.4453 23.3068 28.313 21.6369 27.5389C20.0343 26.8313 18.8614 25.7408 18.1111 24.276C17.2436 22.646 17.0408 20.9031 17.2395 19.1508C17.5567 16.3558 18.786 13.9001 20.6517 11.744C19.0032 12.1832 17.3878 12.7426 15.8682 13.4527C6.76049 17.7085 -1.86604 28.4332 2.23385 38.2757C2.99032 40.0917 3.94354 41.8361 5.45828 43.2519C6.93305 44.6451 8.70179 45.6116 10.7127 46.1951C12.8814 46.8239 15.1012 46.9102 17.3064 46.6028C19.2998 46.3249 21.1621 45.7338 22.8845 44.8178C24.7447 43.8453 26.3728 42.4946 27.779 41.0376C29.5776 39.171 31.0881 36.9933 32.4005 34.8155C34.1149 32.036 35.5625 29.0738 36.8721 26.1103C37.7496 24.1536 38.6333 22.1895 39.5715 20.2573C40.1536 19.0875 40.7764 17.8932 41.4947 16.791C42.0566 15.902 42.7103 15.0593 43.4083 14.2572C44.8305 12.6218 46.5088 11.1214 48.2272 9.73803C46.8362 9.62448 45.4462 9.41263 44.0929 9.06519L39.5256 7.86365C36.9318 7.15925 33.6039 6.46728 30.9309 6.83994C29.4998 7.03944 28.1451 7.47513 26.8772 8.07938C25.6268 8.6675 24.502 9.43732 23.503 10.3287C25.3008 10.1836 27.1541 10.2398 28.9261 10.6597C30.5099 11.0335 32.0154 11.672 33.216 12.7201C34.4378 13.736 35.2547 15.0283 35.7851 16.4316C36.3213 17.9341 36.4991 19.5155 36.4605 21.0724C37.4403 19.6061 38.2147 17.9061 38.8609 16.3114L38.8981 16.22L39.9725 16.3958L39.9187 16.5333C39.0176 18.8347 37.8301 21.0801 36.2347 23.0367C35.846 24.8555 35.2071 26.6171 34.2734 28.2507C33.3295 29.8584 32.1718 31.3473 30.786 32.6592C29.4276 33.9444 27.8816 35.0306 26.1521 35.8812C24.4898 36.7292 22.6835 37.2964 20.7782 37.5619C18.0341 37.9445 15.2586 37.6545 13.0672 35.8802C10.899 34.1882 10.2793 31.9199 10.5591 29.4549C10.688 28.3187 11.0843 27.1606 11.5212 26.1038L11.5557 26.0205L12.6352 26.1166L12.5724 26.268C12.174 27.2263 11.7637 28.3427 11.6467 29.3742C11.4863 30.7897 11.7183 32.1883 12.4884 33.4705C13.1721 34.6896 14.2104 35.5518 15.595 36.0875C17.093 36.7029 18.6898 36.8037 20.2688 36.5836C21.801 36.37 23.2647 35.8555 24.6149 35.2021C26.1405 34.4698 27.5196 33.5239 28.7611 32.4452C30.096 31.3 31.2726 30.0209 32.2639 28.614C33.1311 27.3899 33.8886 26.0833 34.4379 24.7054ZM46.6676 30.2721C47.0503 29.2015 47.2397 27.9742 47.3668 26.8544C47.4497 26.1228 47.4903 25.2313 47.2066 24.5182C47.0233 24.0575 46.717 23.6307 46.1946 23.4447C44.9549 23.0031 43.2866 24.1076 42.4707 24.8157C41.9229 25.2914 41.404 25.8645 41.0431 26.4741C40.5377 27.9344 40.006 29.3951 39.4058 30.8226C39.1328 31.4835 38.8455 32.1397 38.5381 32.7873C40.2292 31.5453 42.1634 30.6496 44.3636 30.343C45.0896 30.2417 45.9216 30.2525 46.6676 30.2721ZM46.2469 31.3707C45.5494 31.2657 44.8438 31.2643 44.1523 31.3608C42.9613 31.5269 41.8503 31.9364 40.8228 32.477C39.7953 33.0269 38.7875 33.6909 38.0082 34.5158C37.1355 35.406 36.4577 36.483 35.9226 37.5729C35.4251 38.5724 34.9703 39.7082 34.8445 40.8161C34.761 41.5527 34.8523 42.3555 35.4152 42.9551C35.9039 43.4962 36.5299 43.692 37.268 43.589C39.8074 43.235 41.7769 40.3979 42.873 38.5386C44.2052 36.2448 45.3647 33.8509 46.2469 31.3707ZM22.2659 11.4093C20.1803 13.5657 18.7135 16.0771 18.3816 19.0016C18.1167 21.3371 18.5887 23.6058 20.4507 25.3936C22.2252 27.1397 24.5305 27.5609 26.9932 27.2177C28.379 27.0244 29.6904 26.6296 30.8788 25.9743C32.3539 25.167 33.8151 23.8954 35.0181 22.7826C35.0967 22.3815 35.1429 21.9586 35.189 21.553C35.3447 20.1816 35.2682 18.7719 34.8468 17.4232C34.459 16.2093 33.8148 15.1111 32.8838 14.1545C31.963 13.1911 30.8651 12.4551 29.5697 11.9768C28.524 11.5747 27.432 11.3069 26.3158 11.1967C24.9756 11.1103 23.5815 11.2278 22.2659 11.4093ZM100.739 13.5907C102.653 12.5016 108.844 5.92703 107.964 2.34437C107.901 1.88576 107.658 1.49671 107.177 1.30108C106.937 1.20428 106.627 1.31801 106.421 1.41992L106.415 1.42292L106.409 1.4253C106.055 1.55798 105.792 1.80677 105.586 2.09206C105.216 2.60577 104.931 3.2578 104.696 3.83472L103.951 5.6659L103.962 5.66273L100.739 13.5907Z" fill="#681E2B"/>
</svg>
