<svg width="24" height="24" viewBox="0 0 24 24" fill="none" xmlns="http://www.w3.org/2000/svg">
<path d="M4.14803 7.07014C4.10735 6.49167 4.56566 6 5.14556 6H18.8544C19.4343 6 19.8926 6.49167 19.852 7.07014L19.0082 19.0701C18.9714 19.5939 18.5358 20 18.0107 20H5.98931C5.46425 20 5.0286 19.5939 4.99178 19.0701L4.14803 7.07014Z" stroke="#5C4A4D" stroke-width="2"/>
<path d="M7.00338 8.08305C7.04925 8.63342 7.5326 9.04241 8.08297 8.99655C8.63335 8.95068 9.04234 8.46733 8.99647 7.91695L7.00338 8.08305ZM15.0034 7.91695C14.9575 8.46733 15.3665 8.95068 15.9169 8.99655C16.4673 9.04241 16.9506 8.63342 16.9965 8.08305L15.0034 7.91695ZM7.99993 8C8.99647 7.91695 8.9965 7.91729 8.99653 7.91761C8.99653 7.91769 8.99656 7.91798 8.99657 7.91814C8.9966 7.91844 8.99661 7.91866 8.99662 7.91879C8.99664 7.91904 8.99664 7.91894 8.9966 7.9185C8.99653 7.91761 8.99636 7.91534 8.9961 7.91173C8.99559 7.90451 8.99474 7.89194 8.99371 7.87438C8.99166 7.83925 8.98893 7.78431 8.98679 7.71244C8.9825 7.56837 8.98067 7.35809 8.99125 7.10413C9.01266 6.5902 9.08383 5.92663 9.27243 5.28C9.46256 4.62813 9.75311 4.05816 10.169 3.65889C10.5609 3.28271 11.122 3 11.9999 3V1C10.6279 1 9.56399 1.46729 8.78396 2.21611C8.028 2.94184 7.5998 3.87187 7.35243 4.72C7.10353 5.57337 7.01844 6.4098 6.99298 7.02087C6.98013 7.32941 6.9822 7.58788 6.98767 7.77194C6.99042 7.86412 6.99403 7.9381 6.99711 7.99085C6.99865 8.01724 7.00006 8.03836 7.00116 8.05384C7.00171 8.06159 7.00218 8.06792 7.00256 8.0728C7.00275 8.07524 7.00292 8.07732 7.00305 8.07903C7.00312 8.07988 7.00318 8.08065 7.00324 8.08132C7.00327 8.08165 7.0033 8.08208 7.00332 8.08225C7.00335 8.08266 7.00338 8.08305 7.99993 8ZM11.9999 3C12.8779 3 13.439 3.28271 13.8308 3.65889C14.2467 4.05816 14.5373 4.62813 14.7274 5.28C14.916 5.92663 14.9872 6.5902 15.0086 7.10413C15.0192 7.35809 15.0174 7.56837 15.0131 7.71244C15.0109 7.78431 15.0082 7.83925 15.0061 7.87438C15.0051 7.89194 15.0043 7.90451 15.0038 7.91173C15.0035 7.91534 15.0033 7.91761 15.0033 7.9185C15.0032 7.91894 15.0032 7.91904 15.0032 7.91879C15.0032 7.91866 15.0033 7.91844 15.0033 7.91814C15.0033 7.91798 15.0033 7.91769 15.0033 7.91761C15.0034 7.91729 15.0034 7.91695 15.9999 8C16.9965 8.08305 16.9965 8.08266 16.9965 8.08225C16.9966 8.08208 16.9966 8.08165 16.9966 8.08132C16.9967 8.08065 16.9967 8.07988 16.9968 8.07903C16.9969 8.07732 16.9971 8.07524 16.9973 8.0728C16.9977 8.06792 16.9981 8.06159 16.9987 8.05384C16.9998 8.03836 17.0012 8.01724 17.0027 7.99085C17.0058 7.9381 17.0094 7.86412 17.0122 7.77194C17.0177 7.58788 17.0197 7.32941 17.0069 7.02087C16.9814 6.4098 16.8963 5.57337 16.6474 4.72C16.4001 3.87187 15.9719 2.94184 15.2159 2.21611C14.4359 1.46729 13.372 1 11.9999 1V3Z" fill="#5C4A4D"/>
</svg>
