<svg width="24" height="24" viewBox="0 0 24 24" fill="none" xmlns="http://www.w3.org/2000/svg">
<path d="M11.2325 6.14111L12 7.0598L12.7675 6.14111C13.7948 4.91131 14.9738 4 16.25 4C18.855 4 21 6.19257 21 8.91429C21 9.91187 20.5489 11.1116 19.7307 12.4172C18.9238 13.7049 17.8217 14.9982 16.6663 16.1588C15.5135 17.3167 14.3316 18.3188 13.3857 19.0258C12.9115 19.3802 12.5094 19.6508 12.2092 19.8277C12.1274 19.8759 12.0577 19.9144 12 19.9443C11.9423 19.9144 11.8726 19.8759 11.7908 19.8277C11.4906 19.6508 11.0885 19.3802 10.6143 19.0258C9.66838 18.3188 8.48647 17.3167 7.3337 16.1588C6.17833 14.9982 5.07616 13.7049 4.26925 12.4172C3.45109 11.1116 3 9.91187 3 8.91429C3 6.19257 5.14497 4 7.75 4C9.0262 4 10.2052 4.91131 11.2325 6.14111ZM11.8266 20.0231C11.8267 20.0229 11.8309 20.0213 11.8387 20.0192C11.8304 20.0222 11.8265 20.0233 11.8266 20.0231ZM12.1613 20.0192C12.1691 20.0213 12.1733 20.0229 12.1734 20.0231C12.1735 20.0233 12.1696 20.0222 12.1613 20.0192Z" stroke="#5C4A4D" stroke-width="2" stroke-linecap="round"/>
</svg>
