<svg width="140" height="60" fill="none" xmlns="http://www.w3.org/2000/svg"><path fill-rule="evenodd" clip-rule="evenodd" d="M13.876 47.964l-.364-.642a16.728 16.728 0 01-1.879-5.75c-.254-1.86-.204-3.78.162-5.717.066-.35.142-.702.229-1.053.032-.159.06-.319.102-.476.817-2.968 1.84-4.94 2.302-5.67l.634.091c-1.151 2.355-1.615 3.217-2.28 5.983-.597 2.927-.454 5.808.405 8.44.705 2.163.538 1.626 1.394 3.066a16.637 16.637 0 002.234 2.937 18.97 18.97 0 002.536 2.227l.047.035-.007.043c2.116 1.545 4.512 2.677 6.999 3.476 1.168.375 2.373.675 3.6.908a39.876 39.876 0 01-3.67.125 50.905 50.905 0 01-3.67-.175 19.314 19.314 0 01-1.02-.305c-2.42-1.422-4.654-3.252-6.42-5.52a18.787 18.787 0 01-1.269-1.847l-.107-.177h.042zm34.911 7.535c8.772-1.664 17.477-4.904 26.006-8.053 2.744-1.013 5.488-2.026 8.24-2.996.797-.28 1.594-.559 2.392-.834.63-.217 1.26-.43 1.89-.638l.26-.015c4.38-.196 7.837.44 10.16 2.197l-.116.03c-6.946 1.859-13.81 4.298-20.668 6.653-13.25 4.548-27.169 9.105-40.712 7.985a39.89 39.89 0 01-5.804-.89c5.11.019 10.435-1.16 15.485-2.58.958-.27 1.914-.558 2.867-.86zm44.277-14.293a97.598 97.598 0 016.758-1.661c5.333-1.103 10.694-1.64 15.972-1.197 2.543.267 4.749.83 6.58 1.63 6.701 2.922 8.656 10.727 1.851 15.712-4.288 3.14-9.672 1.057-2.013-1.332 2.6-.812 5.1-2.74 5.469-6.254.43-4.105-3.84-6.841-12.458-6.336-5.372.17-11.12 1.748-16.446 3.119-1.454-1.69-3.405-2.911-5.713-3.681z" fill="#DE7E4B"/><path fill-rule="evenodd" clip-rule="evenodd" d="M46.422 55.031c13.781-3.876 27.019-11.435 41.153-12.067 3.42-.154 6.278.2 8.472 1.2 2.905 1.323 5.111 3.975 3.697 7.216-1.669 3.824.973 3.396 1.317.347.258-2.297-.499-4.508-1.562-5.901-2.315-3.373-6.359-5.192-11.28-5.548-14.506-1.051-28.111 7.323-42.262 11.825-10.366 3.298-23.833 6.266-31.876-3.423-4.502-5.423-5.923-14.027-1.527-22.963-.087-.513-.455-.008-.9-.014-4.022 9.019-3.08 17.903 1.706 23.877 8.558 10.681 21.528 8.696 33.062 5.451z" fill="#F7C514"/><path fill-rule="evenodd" clip-rule="evenodd" d="M96.448 15.277l.479-1.043 2.676-6.637c.303-.693.598-1.392.891-2.092l1.121-2.351a6.2 6.2 0 01.284-.433c.686-.952 1.571-1.847 2.719-2.347.915-.399 1.898-.531 2.873-.136.827.336 1.328.939 1.48 1.741 1.306 4.404-5.944 11.186-8.221 12.717l-.622.393c-2.195 5.377-4.74 12.322-6.938 17.7-.217.531-.479 1.203-.544 1.773-.028.25-.006.536.211.726l.009.007.007.01c.147.18.333.27.575.236 1.383-.193 2.866-2.058 3.578-3.02.883-1.163 1.66-2.49 2.38-3.747-.411-.329-.803-.722-1.045-1.168-.235-.49-.225-1.133-.167-1.646.076-.671.296-1.333.561-1.954.28-.692.636-1.36 1.02-2.007.397-.611 1.117-1.59 1.966-1.709 1.115-.155 1.158.896 1.077 1.613-.225 1.982-1.212 4.3-2.069 6.132.186.015.374.013.557-.007.897-.1 1.591-.718 2.012-1.399l3.022-7.463.084-.005c.55-.033 1.125-.067 1.668-.142a15.822 15.822 0 001.853-.38l.262-.069-5.062 12.347-.579 1.52a2.075 2.075 0 00-.202.705c-.026.231-.046.538.303.49.584-.082 1.495-1.139 1.828-1.532.956-1.19 1.779-2.503 2.516-3.819a52.021 52.021 0 002.34-4.773l1.532-3.728c.075-.171.155-.343.233-.514.156-.323.289-.665.411-1.002l.024-.067.495-.07.027.024a.62.62 0 00.075-.007l1.606-.133a.37.37 0 00.129-.039l.022-.012.024-.004c.106-.021.243-.071.35-.105.065-.03.151-.04.199-.05l.561-.12.249-.053-5.309 13.03c-.182.426-.407.976-.459 1.435-.05.446.036.75.594.673.922-.129 1.82-1.216 2.301-1.857 1.231-1.682 2.277-3.656 3.215-5.491 1.354-2.63 2.415-5.385 3.529-8.11l.031-.076h.091a10.26 10.26 0 001.514-.09c.616-.087 1.261-.253 1.856-.41l.254-.068-.671 1.787c.978-1.041 2.338-2.222 3.759-2.42 1.864-.26 2.542.818 2.645 2.262.625-.782 1.378-1.648 2.171-2.238.676-.486 1.435-.835 2.304-.956.72-.1 1.401.035 1.895.572.49.57.573 1.304.496 1.985-.091.798-.396 1.668-.685 2.417-.472 1.221-1.044 2.423-1.634 3.598-.595 1.184-1.185 2.385-1.7 3.6-.222.524-.575 1.338-.639 1.9-.052.461.011.845.619.76 1.014-.141 1.999-1.43 2.496-2.148.477-.646.9-1.354 1.3-2.044a76.646 76.646 0 001.721-3.177c.097-.183.531-1.049.871-.916.574.226-.704 2.655-.844 2.918a52.477 52.477 0 01-1.808 3.09c-.552.86-1.227 1.73-2.049 2.392-.626.508-1.363.869-2.209.987-.842.117-1.668-.014-2.297-.596-.648-.601-.806-1.384-.716-2.18.09-.791.412-1.655.715-2.392.663-1.59 1.444-3.158 2.234-4.694.397-.807.786-1.629 1.114-2.463.181-.462.397-1.036.453-1.53.039-.347.012-.705-.471-.637-1.256.175-2.738 2.42-3.306 3.31-.575.903-1.061 1.926-1.509 2.888a113.422 113.422 0 00-2.1 4.848c-.279.731-.559 1.462-.848 2.19-.133.336-.269.709-.431 1.03l-.411.985-.084.003c-.32.013-.65.03-.965.074l-.584.082-1.331.215c-.047.02-.102.029-.14.038-.14.035-.28.068-.419.101l-.267.063.104-.23c.087-.192.433-.908.455-1.098l.001-.015 2.151-5.168 1.807-4.323c.333-.819.664-1.641.966-2.47.11-.304.316-.821.353-1.139.036-.322-.028-.517-.421-.462-.377.052-.772.337-1.041.562-.553.446-1.04 1.034-1.456 1.587-1.439 1.932-2.534 4.274-3.426 6.466l-1.456 3.563-.859 2.172-.398.96h-.091a5.855 5.855 0 00-.859.03c-.86.119-1.71.28-2.55.477l-.254.06 1.066-2.608c-.995 1.445-2.466 3.053-4.366 3.317-.841.118-1.545-.103-2.052-.759-.579-.734-.624-1.727-.528-2.573l.01-.094c-.349.491-.702.98-1.065 1.462-.283.375-.577.765-.897 1.114-.842.938-1.906 1.657-3.265 1.846-.681.095-1.375.019-1.875-.475-.508-.501-.583-1.185-.511-1.819.099-.868.5-1.918.822-2.731l.591-1.46c-.37.218-.779.363-1.23.426-.308.042-.693.024-1.018.004-1.041 1.864-2.291 3.944-3.766 5.538-.89.957-2.063 1.87-3.486 2.069-.955.133-1.882-.02-2.555-.719-.667-.692-.771-1.663-.701-2.532-.5.817-1.057 1.647-1.686 2.355-.926 1.056-2.113 1.88-3.629 2.09-.79.11-1.603.031-2.23-.483-.634-.48-.81-1.143-.729-1.852.08-.706.51-1.717.784-2.377.62-1.5 1.323-2.982 2.03-4.446.135-.282.273-.623.308-.934.11-.966-1.052-.882-1.771-.782-.289.04-.611.13-.895.207l-4.726 11.444h-.09a11.151 11.151 0 00-1.585.1c-.573.08-1.235.275-1.787.43l-.266.075 1.233-3.019c-.377.457-.781.896-1.204 1.319-1.145 1.103-2.65 2.212-4.37 2.452-.718.1-1.464.063-2.133-.254-1.362-.644-2.159-2.249-2.347-3.61l-.042.067c-.167.255-.335.509-.506.761a25.949 25.949 0 01-1.579 2.117c-.673.803-1.927 2.174-3.098 2.337-.84.117-1.545-.104-2.051-.76-.58-.734-.625-1.727-.529-2.573l.01-.094c-.348.491-.702.98-1.065 1.462-.282.375-.577.765-.896 1.114-.87.97-2.236 1.638-3.61 1.83-.681.095-1.375.018-1.875-.476-.86-.85.282-3.589.656-4.533l1.152-2.845c-.293-.5-.714-.82-1.15-1.187-1.125 2.844-2.747 5.475-5.04 7.657-1.935 1.84-4.304 3.335-7.16 3.733-1.143.16-2.378.077-3.25-.736-.906-.814-1.01-2.038-.89-3.1.045-.397.128-.79.238-1.175-2.133 2.048-4.697 3.77-7.406 5.146-2.612 1.33-5.442 2.31-8.44 2.728-5.486.764-10.604-.238-14.326-4.342a15.642 15.642 0 01-2.175-3.103l-.03.008-.046-.108a30 30 0 01-1.253-3.645l-.003-.01v-.012c-.046-.225-.084-.45-.12-.676C-1.672 23.709 9.728 12.96 21.794 10.52c3.439-3.23 7.77-5.047 12.713-5.736 1.28-.178 2.643-.31 3.95-.253 1.63.084 3.317.343 4.926.627 3.009.494 6.18 1 9.219 1.21 1.755.119 3.667.175 5.397-.066 1.027-.143 2.061-.38 3.003-.77.893-.346 1.707-.852 2.43-1.431.892-.713 1.702-1.591 2.435-2.439l.073-.085.787.472-.082.102c-1.59 1.994-3.498 3.715-5.78 5.054a19.375 19.375 0 01-7.173 2.504c-1.334.185-2.69.22-4.045.125-1.715 1.365-3.053 3.064-4.089 4.91-.673 1.177-1.23 2.44-1.73 3.688-.686 1.71-1.283 3.457-1.837 5.209l-.12.37c1.586-1.477 3.672-2.737 5.932-1.28.606.394 1.41.933 1.883 1.456.594.607.967 1.404 1.21 2.17.6 2.007.015 3.756-.35 5.659.42.306.947.619 1.294 1.005l2.657-6.563.083-.004c.55-.033 1.126-.066 1.67-.142a15.833 15.833 0 001.851-.38l.263-.068-4.158 10.139c-.279.68-.589 1.351-.876 2.03-.316.75-.67 1.61-.81 2.409-.041.237-.05.532.303.483.585-.082 1.496-1.139 1.829-1.531.956-1.191 1.779-2.503 2.515-3.82a46.752 46.752 0 001.563-3.065c1.069-2.286 1.99-4.63 2.955-6.957l.03-.072.086-.002c1.14-.034 2.303-.231 3.39-.503l.258-.065-3.787 9.295c-.386.946-.806 1.864-1.168 2.824-.121.321-1.023 2.742-.627 2.971.08.047.272-.05.335-.084.931-.505 3.396-4.295 3.869-5.321.297-.646.603-1.288.928-1.923.468-.907.937-1.814 1.43-2.711 1.426-2.521 4.17-6.163 7.507-6.63.83-.115 1.619.03 2.195.65.61.672.67 1.594.578 2.403a6.976 6.976 0 01-.848 2.623c-.43.813-.967 1.606-1.661 2.249-.527.495-1.204.963-1.982 1.072-.395.055-.755-.04-1.007-.339-.276-.296-.335-.663-.294-1.03.079-.692.403-1.287.898-1.8.526-.548 1.205-.887 1.979-1.074.433-.126 1.026-.33 1.337-.64.29-.289.398-.774.442-1.156.056-.502.018-1.065-.304-1.505-.278-.348-.632-.5-1.094-.436-.965.134-1.75 1.282-2.172 1.982-2.025 3.472-3.534 7.155-3.985 11.128-.043.378 0 .787.307 1.087.281.305.776.3 1.16.246.975-.136 1.868-.684 2.586-1.256 2.316-1.894 3.505-3.882 4.705-6.453l3.395-8.228.091.001c.445.008.9-.005 1.337-.066.695-.097 1.402-.281 2.068-.47l.269-.076-1.58 3.806.39-.054c.51-.07 1.013-.198 1.458-.428.444-.25.837-.61 1.167-.974l1.626-1.801c.853-.935 1.937-1.702 3.305-1.892.538-.075 1.091-.027 1.565.266.451.313.545.795.491 1.271-.06.53-.308.978-.714 1.353-.429.389-.939.662-1.55.747-.564.078-1.148.01-1.555-.403l-.399-.316-.012-.026c-.045-.09-.147-.088-.24-.075-.37.052-.897.57-1.127.81-.48.522-.99 1.024-1.536 1.492 1.406.308 2.627 1.002 2.459 2.483-.119 1.044-.86 2.506-1.345 3.442-.462.914-.936 1.836-1.362 2.762-.132.33-.21.67-.25 1.022-.044.386-.05.924.539.842.94-.13 1.837-1.189 2.336-1.843.545-.72 1.032-1.5 1.49-2.27a72.079 72.079 0 001.882-3.395c1.84-3.506 3.49-8.916 4.977-12.578-2.356.976-4.86 1.618-7.435 2.013l-1.007.116c-4.497.338-8.262-.49-11.964-3.048l-.007-.005-1.046-.943.877-.707.092.082c3.1 2.792 6.993 3.865 11.2 3.725 3.447-.259 6.695-1.118 9.787-2.44zm-62.01 9.428c-1.078.858-2.306 1.746-3.554 2.333a13.954 13.954 0 01-3.96 1.157c-1.795.25-3.617.118-5.287-.656-1.603-.708-2.776-1.798-3.526-3.263-.867-1.63-1.07-3.373-.872-5.125.318-2.795 1.547-5.25 3.413-7.407-1.649.44-3.264.999-4.784 1.709C6.76 17.709-1.866 28.433 2.234 38.276c.756 1.816 1.71 3.56 3.224 4.976 1.475 1.393 3.244 2.36 5.255 2.943 2.168.629 4.388.715 6.593.408a16.708 16.708 0 005.578-1.785c1.86-.973 3.489-2.323 4.895-3.78 1.799-1.867 3.31-4.045 4.622-6.222 1.714-2.78 3.161-5.742 4.471-8.706.878-1.956 1.761-3.92 2.7-5.853.582-1.17 1.204-2.364 1.923-3.466a20.906 20.906 0 011.913-2.534c1.422-1.635 3.1-3.136 4.82-4.519a24.73 24.73 0 01-4.135-.673l-4.567-1.201c-2.594-.705-5.922-1.397-8.595-1.024-1.431.2-2.786.635-4.054 1.24a14.064 14.064 0 00-3.374 2.249c1.798-.145 3.651-.09 5.423.33 1.584.374 3.09 1.013 4.29 2.061 1.222 1.016 2.039 2.308 2.57 3.712.535 1.502.713 3.084.675 4.64.98-1.466 1.754-3.166 2.4-4.76l.037-.092 1.074.176-.053.137c-.901 2.302-2.089 4.547-3.684 6.504-.389 1.819-1.028 3.58-1.962 5.214a19.968 19.968 0 01-3.487 4.408 18.777 18.777 0 01-4.634 3.222 16.932 16.932 0 01-5.374 1.68c-2.744.383-5.52.093-7.71-1.68-2.169-1.693-2.789-3.961-2.509-6.426.129-1.136.525-2.294.962-3.351l.035-.084 1.08.097-.064.151c-.398.958-.808 2.075-.925 3.106-.16 1.416.071 2.814.841 4.097.684 1.219 1.722 2.08 3.107 2.617 1.498.615 3.095.716 4.674.496 1.532-.214 2.996-.729 4.346-1.382 1.526-.732 2.905-1.678 4.146-2.757a20.961 20.961 0 003.503-3.831c.867-1.224 1.625-2.53 2.174-3.909zm12.23 5.567c.382-1.07.572-2.298.699-3.418.083-.731.123-1.623-.16-2.336-.184-.46-.49-.887-1.012-1.073-1.24-.442-2.908.663-3.724 1.37-.548.476-1.067 1.05-1.428 1.66a71.787 71.787 0 01-1.637 4.348c-.273.66-.56 1.317-.868 1.964 1.691-1.242 3.625-2.137 5.826-2.444.726-.101 1.558-.09 2.304-.07zm-.421 1.099a7.297 7.297 0 00-2.095-.01c-1.19.166-2.302.575-3.33 1.116-1.027.55-2.035 1.214-2.814 2.039-.873.89-1.55 1.967-2.085 3.057-.498 1-.953 2.135-1.079 3.243-.083.737.008 1.54.571 2.14.489.54 1.115.736 1.853.633 2.54-.354 4.509-3.191 5.605-5.05 1.332-2.294 2.492-4.688 3.374-7.168zM22.266 11.409c-2.086 2.157-3.552 4.668-3.884 7.593-.265 2.335.207 4.604 2.069 6.392 1.774 1.746 4.08 2.167 6.542 1.824 1.386-.194 2.697-.588 3.886-1.244 1.475-.807 2.936-2.079 4.14-3.191.078-.402.124-.824.17-1.23.156-1.371.08-2.781-.342-4.13a8.213 8.213 0 00-1.963-3.268 8.691 8.691 0 00-3.314-2.178 12.485 12.485 0 00-3.254-.78c-1.34-.087-2.735.03-4.05.212zm78.473 2.182c1.914-1.09 8.105-7.664 7.225-11.247-.063-.458-.306-.847-.787-1.043-.24-.097-.55.017-.756.119l-.006.003-.006.002c-.354.133-.617.382-.823.667-.37.514-.655 1.166-.89 1.743l-.745 1.83.011-.002-3.223 7.928z" fill="#681E2B"/></svg>