<svg width="16" height="14" viewBox="0 0 16 14" fill="none" xmlns="http://www.w3.org/2000/svg">
<path d="M8.36107 13.0605L8.36056 13.0608C8.25616 13.1245 8.15335 13.1797 8.06654 13.2167C8.03936 13.2283 8.0172 13.2366 8 13.2424C7.9828 13.2366 7.96064 13.2283 7.93346 13.2167C7.84665 13.1797 7.74384 13.1245 7.63944 13.0608C5.47785 11.7429 3.73893 10.3331 2.54808 8.8946C1.35685 7.45565 0.75 6.03372 0.75 4.66916C0.75 2.33128 2.42543 0.75 4.6087 0.75C5.88931 0.75 6.84141 1.30066 7.3887 2.0706L7.99547 2.92421L8.60823 2.07489C9.17239 1.29292 10.1193 0.75 11.3992 0.75C13.5737 0.75 15.25 2.33044 15.25 4.66916C15.25 6.03425 14.6447 7.45627 13.4547 8.89482C12.265 10.3331 10.5263 11.7427 8.36107 13.0605Z" fill="#F0E7E7" stroke="#92525D" stroke-width="1.5"/>
</svg>
