<svg width="20" height="18" fill="none" xmlns="http://www.w3.org/2000/svg"><path d="M9.233 3.141L10 4.06l.768-.919C11.794 1.911 12.973 1 14.25 1 16.855 1 19 3.193 19 5.914c0 .998-.451 2.198-1.27 3.503-.806 1.288-1.908 2.581-3.064 3.742a30.963 30.963 0 01-3.28 2.867c-.474.354-.877.625-1.177.802a4.458 4.458 0 01-.209.116 4.487 4.487 0 01-.21-.116c-.3-.177-.701-.448-1.176-.802a30.959 30.959 0 01-3.28-2.867c-1.156-1.16-2.258-2.454-3.065-3.742C1.451 8.112 1 6.912 1 5.914 1 3.193 3.145 1 5.75 1c1.276 0 2.455.911 3.483 2.141zm.594 13.882l.012-.004a.085.085 0 01-.012.004zm.334-.004a.076.076 0 01.012.004l-.012-.004z" stroke="#5C4A4D" fill="#5C4A4D" stroke-width="2" stroke-linecap="round"/></svg>